# xmcd
#
# Track frame offsets:
#	150
#	21003
#	35219
#	53592
#	73391
#	93768
#	118082
#	135161
#	150966
#	166673
#	183419
#	201095
#	219804
#
# Disc length: 3149
#
# Revision: 1
# Processed by: cddbd v1.5.1PL0 Copyright (c) Steve Scherf et al.
# Submitted via: dBpowerAMP V4.0
# Normalized: r0:TRMNUM
#
DISCID=a20c4b0d
DTITLE=Sandy Lam - The Story of Sandy Lam So Far
DYEAR=2002
DGENRE=Pop
TTITLE0=Because You Loved Me
TTITLE1=Cuts Both Ways
TTITLE2=Hero
TTITLE3=In Another Life
TTITLE4=Seasons Of Love
TTITLE5=Take A Bow
TTITLE6=When Can I See You
TTITLE7=If You Don't Know Me By Now
TTITLE8=Daddy's Home
TTITLE9=You Don't Bring Me Flowers
TTITLE10=The Rose
TTITLE11=I Swear
TTITLE12=What A Wonderful World
EXTD=
EXTT0=
EXTT1=
EXTT2=
EXTT3=
EXTT4=
EXTT5=
EXTT6=
EXTT7=
EXTT8=
EXTT9=
EXTT10=
EXTT11=
EXTT12=
PLAYORDER=
